<?xml version="1.0" encoding="UTF-8"?><svg id="a" xmlns="http://www.w3.org/2000/svg" viewBox="0 0 679.06 679.06"><defs><style>.b,.c,.d,.e,.f,.g,.h,.i,.j,.k{stroke-miterlimit:10;}.b,.e,.g,.h,.i,.j{fill:none;stroke:#7c7c7c;}.b,.h{stroke-width:14.06px;}.c{fill:#67ce7b;}.c,.d{stroke-width:6.64px;}.c,.d,.f,.k{stroke:#fff;}.d{fill:#7c7c7c;}.e{stroke-width:36.34px;}.f{stroke-width:15.83px;}.f,.k{fill:#cc6969;}.g{stroke-width:40.78px;}.h,.i{stroke-linecap:round;}.i{stroke-width:13.78px;}.j{stroke-width:13.78px;}.k{stroke-width:16px;}</style></defs><g><g><circle class="e" cx="493.15" cy="301.16" r="128.23"/><line class="g" x1="405.82" y1="395.04" x2="224.45" y2="659.14"/></g><path class="j" d="M234.88,86.18c159.08,60.28,270.43,155.61,248.71,212.93-21.72,57.31-168.28,54.91-327.36-5.37"/><circle class="f" cx="493.15" cy="306.7" r="47.48"/><path class="b" d="M202.45,309.84C348.78,216.3,440.08,97.72,406.38,45,372.68-7.72,226.73,25.38,80.4,118.92"/><circle class="c" cx="155.3" cy="188.02" r="33.95"/><circle class="d" cx="164.67" cy="147.18" r="33.95"/><circle class="c" cx="200.12" cy="176.65" r="33.95"/><circle class="d" cx="185.1" cy="219.2" r="33.95"/></g><g><g><circle class="e" cx="493.15" cy="301.16" r="128.23"/><line class="g" x1="405.82" y1="395.04" x2="224.45" y2="659.14"/></g><circle class="c" cx="155.3" cy="188.02" r="33.95"/><circle class="d" cx="164.67" cy="147.18" r="33.95"/><circle class="c" cx="200.12" cy="176.65" r="33.95"/><circle class="d" cx="185.1" cy="219.2" r="33.95"/></g><path class="h" d="M0,401c58.5-13.73,130.42-45.11,202.45-91.16C348.78,216.3,440.08,97.72,406.38,45,372.68-7.72,226.73,25.38,80.4,118.92,51.23,137.58,24.25,157.22,0,177.15"/><path class="i" d="M0,213.66c42.02,29.08,95.66,57.12,156.23,80.07,159.08,60.28,305.65,62.69,327.36,5.37,21.72-57.31-89.63-152.64-248.71-212.93C146.21,52.58,61.44,36.97,0,39.65"/><circle class="k" cx="493.15" cy="301.16" r="70.5"/></svg>