<?xml version="1.0" encoding="UTF-8"?><svg id="a" xmlns="http://www.w3.org/2000/svg" viewBox="0 0 2105.78 186.44"><defs><style>.b{fill:#b24ce2;}.c{fill:#e24c4c;}.d{fill:#bfa63d;}.e{fill:#190303;}</style></defs><g><g><path class="c" d="M348.73,78.23v24.12h-17.14V31.25h28.37c5.44,0,10.25,1,14.43,3,4.18,2,7.42,4.85,9.72,8.54,2.29,3.69,3.44,7.89,3.44,12.57,0,6.93-2.48,12.48-7.45,16.63-4.96,4.15-11.78,6.23-20.43,6.23h-10.94Zm0-13.23h11.23c3.32,0,5.85-.83,7.59-2.49,1.74-1.66,2.61-4,2.61-7.03,0-3.32-.9-5.97-2.69-7.96-1.79-1.99-4.23-2.99-7.32-3.03h-11.43v20.51Z"/><path class="c" d="M425.15,102.35c-.59-1.07-1.11-2.65-1.56-4.74-3.03,3.81-7.26,5.71-12.7,5.71-4.98,0-9.21-1.51-12.7-4.52-3.48-3.01-5.22-6.79-5.22-11.35,0-5.73,2.12-10.06,6.35-12.99,4.23-2.93,10.38-4.39,18.46-4.39h5.08v-2.8c0-4.87-2.1-7.31-6.3-7.31-3.91,0-5.86,1.93-5.86,5.79h-16.46c0-5.1,2.17-9.25,6.52-12.44s9.89-4.78,16.63-4.78,12.06,1.64,15.97,4.93c3.91,3.29,5.91,7.8,6.01,13.53v23.39c.06,4.85,.81,8.56,2.25,11.13v.83h-16.46Zm-10.3-10.74c2.05,0,3.75-.44,5.1-1.32,1.35-.88,2.32-1.87,2.91-2.98v-8.45h-4.79c-5.73,0-8.59,2.57-8.59,7.71,0,1.5,.5,2.71,1.51,3.64,1.01,.93,2.29,1.39,3.86,1.39Z"/><path class="c" d="M480.42,64.41l-5.42-.39c-5.18,0-8.5,1.63-9.96,4.88v33.45h-16.46V49.51h15.43l.54,6.79c2.77-5.18,6.62-7.76,11.57-7.76,1.76,0,3.29,.2,4.59,.59l-.29,15.28Z"/><path class="c" d="M510.99,103.32c-8.11,0-14.67-2.42-19.68-7.25-5.01-4.83-7.52-11.12-7.52-18.87v-1.37c0-5.4,1-10.17,3-14.31,2-4.13,4.92-7.33,8.76-9.59,3.84-2.26,8.4-3.39,13.67-3.39,7.42,0,13.28,2.3,17.58,6.91,4.3,4.61,6.45,11.03,6.45,19.26v6.4h-32.71c.59,2.96,1.87,5.29,3.86,6.98,1.99,1.69,4.56,2.54,7.71,2.54,5.21,0,9.28-1.82,12.21-5.47l7.52,8.89c-2.05,2.83-4.96,5.09-8.72,6.76s-7.8,2.51-12.13,2.51Zm-1.86-42.09c-4.82,0-7.68,3.19-8.59,9.57h16.6v-1.27c.06-2.64-.6-4.68-2-6.13-1.4-1.45-3.4-2.17-6.01-2.17Z"/><path class="c" d="M554.98,49.51l.54,6.2c3.65-4.79,8.68-7.18,15.09-7.18,5.5,0,9.61,1.64,12.33,4.93,2.72,3.29,4.12,8.24,4.22,14.84v34.03h-16.5v-33.35c0-2.67-.54-4.63-1.61-5.88-1.07-1.25-3.03-1.88-5.86-1.88-3.22,0-5.62,1.27-7.18,3.81v37.3h-16.45V49.51h15.43Z"/><path class="c" d="M615.43,36.38v13.13h8.69v11.43h-8.69v24.17c0,1.99,.36,3.37,1.07,4.15,.72,.78,2.13,1.17,4.25,1.17,1.63,0,3-.1,4.1-.29v11.77c-2.96,.94-6.05,1.42-9.28,1.42-5.66,0-9.85-1.33-12.55-4-2.7-2.67-4.05-6.72-4.05-12.16v-26.22h-6.74v-11.43h6.74v-13.13h16.46Z"/></g><g><path class="c" d="M198.84,7.23l10.25,27.25,10.23-27.25h7.98V42.77h-6.15v-11.72l.61-15.67-10.5,27.39h-4.42l-10.47-27.37,.61,15.65v11.72h-6.15V7.23h8.01Z"/><path class="c" d="M249.82,42.77c-.26-.5-.49-1.33-.68-2.47-1.89,1.97-4.2,2.95-6.93,2.95s-4.82-.76-6.49-2.27c-1.68-1.51-2.51-3.39-2.51-5.62,0-2.82,1.05-4.98,3.14-6.48,2.09-1.51,5.08-2.26,8.97-2.26h3.64v-1.73c0-1.37-.38-2.46-1.15-3.28-.77-.82-1.93-1.23-3.49-1.23-1.35,0-2.46,.34-3.32,1.01-.86,.68-1.29,1.53-1.29,2.58h-5.93c0-1.45,.48-2.8,1.44-4.06,.96-1.26,2.27-2.25,3.92-2.97,1.65-.72,3.5-1.07,5.53-1.07,3.09,0,5.56,.78,7.4,2.33,1.84,1.55,2.78,3.74,2.83,6.56v11.91c0,2.38,.33,4.27,1,5.69v.42h-6.05Zm-6.52-4.27c1.17,0,2.27-.28,3.31-.85,1.03-.57,1.81-1.33,2.33-2.29v-4.98h-3.2c-2.2,0-3.85,.38-4.96,1.15-1.11,.77-1.66,1.85-1.66,3.25,0,1.14,.38,2.05,1.14,2.72,.76,.68,1.77,1.01,3.04,1.01Z"/><path class="c" d="M275.89,35.6c0-1.06-.44-1.86-1.31-2.42-.87-.55-2.32-1.04-4.33-1.46-2.02-.42-3.7-.96-5.05-1.61-2.96-1.43-4.44-3.51-4.44-6.23,0-2.28,.96-4.18,2.88-5.71,1.92-1.53,4.36-2.29,7.32-2.29,3.16,0,5.71,.78,7.65,2.34,1.94,1.56,2.92,3.59,2.92,6.08h-5.93c0-1.14-.42-2.09-1.27-2.84-.85-.76-1.97-1.14-3.37-1.14-1.3,0-2.36,.3-3.19,.9-.82,.6-1.23,1.41-1.23,2.42,0,.91,.38,1.62,1.15,2.12,.76,.5,2.31,1.01,4.64,1.53,2.33,.51,4.15,1.12,5.48,1.83,1.33,.71,2.31,1.56,2.95,2.55,.64,.99,.96,2.2,.96,3.61,0,2.38-.98,4.3-2.95,5.77-1.97,1.47-4.55,2.21-7.74,2.21-2.17,0-4.09-.39-5.79-1.17-1.69-.78-3.01-1.86-3.96-3.22-.94-1.37-1.42-2.84-1.42-4.42h5.76c.08,1.4,.61,2.48,1.59,3.23s2.27,1.14,3.88,1.14,2.75-.3,3.56-.89c.81-.59,1.22-1.37,1.22-2.33Z"/><path class="c" d="M301.7,35.6c0-1.06-.44-1.86-1.31-2.42-.87-.55-2.32-1.04-4.33-1.46-2.02-.42-3.7-.96-5.05-1.61-2.96-1.43-4.44-3.51-4.44-6.23,0-2.28,.96-4.18,2.88-5.71,1.92-1.53,4.36-2.29,7.32-2.29,3.16,0,5.71,.78,7.65,2.34,1.94,1.56,2.92,3.59,2.92,6.08h-5.93c0-1.14-.42-2.09-1.27-2.84-.85-.76-1.97-1.14-3.37-1.14-1.3,0-2.36,.3-3.19,.9-.82,.6-1.23,1.41-1.23,2.42,0,.91,.38,1.62,1.15,2.12,.76,.5,2.31,1.01,4.64,1.53,2.33,.51,4.15,1.12,5.48,1.83,1.33,.71,2.31,1.56,2.95,2.55,.64,.99,.96,2.2,.96,3.61,0,2.38-.98,4.3-2.95,5.77-1.97,1.47-4.55,2.21-7.74,2.21-2.17,0-4.09-.39-5.79-1.17-1.69-.78-3.01-1.86-3.96-3.22-.94-1.37-1.42-2.84-1.42-4.42h5.76c.08,1.4,.61,2.48,1.59,3.23s2.27,1.14,3.88,1.14,2.75-.3,3.56-.89c.81-.59,1.22-1.37,1.22-2.33Z"/></g><g><path class="c" d="M129.03,117.37h-13.77l-2.88,8.28h-6.42l13.43-35.55h5.54l13.45,35.55h-6.45l-2.91-8.28Zm-12.04-4.98h10.3l-5.15-14.75-5.15,14.75Z"/><path class="c" d="M148.86,92.81v6.42h4.66v4.39h-4.66v14.75c0,1.01,.2,1.74,.6,2.19,.4,.45,1.11,.67,2.14,.67,.68,0,1.38-.08,2.08-.24v4.59c-1.35,.37-2.65,.56-3.91,.56-4.56,0-6.84-2.51-6.84-7.54v-14.97h-4.35v-4.39h4.35v-6.42h5.93Z"/><path class="c" d="M156.21,112.19c0-2.59,.51-4.92,1.54-6.99s2.47-3.67,4.32-4.79c1.86-1.11,3.99-1.67,6.4-1.67,3.56,0,6.46,1.15,8.68,3.44s3.42,5.34,3.6,9.13l.02,1.39c0,2.6-.5,4.93-1.5,6.98s-2.43,3.64-4.3,4.76c-1.86,1.12-4.02,1.68-6.46,1.68-3.73,0-6.71-1.24-8.95-3.72-2.24-2.48-3.36-5.79-3.36-9.92v-.29Zm5.93,.51c0,2.72,.56,4.85,1.68,6.38s2.69,2.31,4.69,2.31,3.56-.78,4.68-2.34c1.11-1.56,1.67-3.85,1.67-6.86,0-2.67-.57-4.79-1.72-6.35s-2.71-2.34-4.68-2.34-3.48,.77-4.61,2.31c-1.14,1.54-1.71,3.84-1.71,6.9Z"/><path class="c" d="M191.36,99.23l.17,2.76c1.86-2.16,4.39-3.25,7.62-3.25,3.53,0,5.95,1.35,7.25,4.05,1.92-2.7,4.62-4.05,8.11-4.05,2.91,0,5.08,.81,6.51,2.42,1.42,1.61,2.15,3.99,2.19,7.13v17.36h-5.93v-17.19c0-1.68-.37-2.91-1.1-3.69s-1.95-1.17-3.64-1.17c-1.35,0-2.45,.36-3.31,1.09-.85,.72-1.45,1.67-1.79,2.84l.02,18.12h-5.93v-17.38c-.08-3.11-1.67-4.66-4.76-4.66-2.38,0-4.06,.97-5.05,2.91v19.14h-5.93v-26.42h5.59Z"/><path class="c" d="M229.3,92.37c0-.91,.29-1.67,.87-2.27,.58-.6,1.4-.9,2.48-.9s1.9,.3,2.49,.9c.59,.6,.88,1.36,.88,2.27s-.29,1.64-.88,2.23c-.59,.59-1.42,.89-2.49,.89s-1.9-.3-2.48-.89c-.58-.59-.87-1.34-.87-2.23Zm6.3,33.28h-5.93v-26.42h5.93v26.42Z"/><path class="c" d="M252.91,121.39c1.48,0,2.71-.43,3.69-1.29,.98-.86,1.5-1.93,1.56-3.2h5.59c-.07,1.64-.58,3.18-1.54,4.6-.96,1.42-2.26,2.55-3.91,3.38-1.64,.83-3.42,1.25-5.32,1.25-3.69,0-6.62-1.2-8.79-3.59-2.17-2.39-3.25-5.7-3.25-9.91v-.61c0-4.02,1.07-7.24,3.22-9.66s5.08-3.63,8.79-3.63c3.14,0,5.7,.92,7.68,2.75s3.02,4.24,3.11,7.21h-5.59c-.07-1.51-.58-2.76-1.55-3.74-.97-.98-2.2-1.46-3.7-1.46-1.92,0-3.4,.7-4.44,2.09-1.04,1.39-1.57,3.5-1.59,6.34v.95c0,2.86,.52,5,1.55,6.41,1.03,1.41,2.53,2.11,4.48,2.11Z"/><path class="c" d="M295.2,115.63h-5.47l-1.86,10.01h-4.1l1.86-10.01h-5.64v-3.86h6.37l1.42-7.67h-5.93v-3.86h6.67l1.9-10.16h4.08l-1.9,10.16h5.49l1.9-10.16h4.08l-1.9,10.16h5.08v3.86h-5.81l-1.42,7.67h5.4v3.86h-6.13l-1.86,10.01h-4.08l1.86-10.01Zm-4.74-3.86h5.47l1.42-7.67h-5.47l-1.42,7.67Z"/></g></g><g><g><path class="b" d="M1618.27,102.35V31.25h22.9c6.28,0,11.93,1.42,16.94,4.27,5.01,2.85,8.93,6.87,11.74,12.06,2.82,5.19,4.24,11.01,4.27,17.46v3.27c0,6.51-1.38,12.35-4.13,17.5-2.75,5.16-6.62,9.2-11.62,12.11-5,2.91-10.57,4.39-16.72,4.42h-23.39Zm17.14-57.86v44.68h5.96c4.92,0,8.69-1.75,11.33-5.25,2.64-3.5,3.96-8.7,3.96-15.6v-3.08c0-6.87-1.32-12.04-3.96-15.53-2.64-3.48-6.48-5.22-11.52-5.22h-5.76Z"/><path class="b" d="M1711.92,102.35c-.59-1.07-1.11-2.65-1.56-4.74-3.03,3.81-7.26,5.71-12.7,5.71-4.98,0-9.21-1.51-12.7-4.52-3.48-3.01-5.22-6.79-5.22-11.35,0-5.73,2.12-10.06,6.35-12.99s10.38-4.39,18.46-4.39h5.08v-2.8c0-4.87-2.1-7.31-6.3-7.31-3.91,0-5.86,1.93-5.86,5.79h-16.46c0-5.1,2.17-9.25,6.52-12.44s9.89-4.78,16.63-4.78,12.06,1.64,15.97,4.93c3.91,3.29,5.91,7.8,6.01,13.53v23.39c.07,4.85,.81,8.56,2.25,11.13v.83h-16.46Zm-10.3-10.74c2.05,0,3.75-.44,5.1-1.32s2.32-1.87,2.91-2.98v-8.45h-4.79c-5.73,0-8.59,2.57-8.59,7.71,0,1.5,.5,2.71,1.51,3.64s2.29,1.39,3.86,1.39Z"/><path class="b" d="M1766.71,96.63c-3.48,4.46-8.19,6.69-14.11,6.69s-10.18-1.68-13.16-5.05-4.47-8.21-4.47-14.53V49.51h16.46v34.33c0,4.52,2.2,6.79,6.59,6.79,3.78,0,6.46-1.35,8.06-4.05V49.51h16.55v52.83h-15.43l-.49-5.71Z"/><path class="b" d="M1789.71,75.54c0-5.34,.88-10.06,2.64-14.16s4.28-7.27,7.57-9.5c3.29-2.23,7.11-3.34,11.47-3.34,5.5,0,9.8,1.86,12.89,5.57l.59-4.59h14.94v50.83c0,4.65-1.08,8.7-3.25,12.13-2.17,3.43-5.3,6.07-9.4,7.91-4.1,1.84-8.85,2.76-14.26,2.76-3.87,0-7.62-.73-11.25-2.2s-6.4-3.37-8.33-5.71l6.88-9.67c3.06,3.61,7.1,5.42,12.11,5.42,7.29,0,10.94-3.74,10.94-11.23v-1.66c-3.16,3.48-7.15,5.22-11.96,5.22-6.45,0-11.65-2.47-15.62-7.4s-5.96-11.53-5.96-19.8v-.59Zm16.5,1.03c0,4.33,.81,7.76,2.44,10.28,1.63,2.52,3.91,3.78,6.84,3.78,3.55,0,6.14-1.19,7.76-3.56v-22.22c-1.59-2.41-4.15-3.61-7.67-3.61-2.93,0-5.22,1.31-6.88,3.93-1.66,2.62-2.49,6.42-2.49,11.4Z"/><path class="b" d="M1865.24,55.18c3.52-4.43,8.01-6.64,13.48-6.64,5.83,0,10.22,1.73,13.18,5.18,2.96,3.45,4.48,8.54,4.54,15.28v33.35h-16.5v-32.96c0-2.8-.57-4.86-1.71-6.18s-3.08-1.98-5.81-1.98c-3.39,0-5.78,1.07-7.18,3.22v37.89h-16.46V27.35h16.46v27.83Z"/><path class="b" d="M1924.77,36.38v13.13h8.69v11.43h-8.69v24.17c0,1.99,.36,3.37,1.07,4.15s2.13,1.17,4.25,1.17c1.63,0,3-.1,4.1-.29v11.77c-2.96,.94-6.05,1.42-9.28,1.42-5.66,0-9.85-1.33-12.55-4-2.7-2.67-4.05-6.72-4.05-12.16v-26.22h-6.74v-11.43h6.74v-13.13h16.46Z"/><path class="b" d="M1965.49,103.32c-8.11,0-14.67-2.42-19.68-7.25s-7.52-11.12-7.52-18.87v-1.37c0-5.4,1-10.17,3-14.31,2-4.13,4.92-7.33,8.76-9.59,3.84-2.26,8.4-3.39,13.67-3.39,7.42,0,13.28,2.3,17.58,6.91,4.3,4.61,6.45,11.03,6.45,19.26v6.4h-32.71c.59,2.96,1.87,5.29,3.86,6.98,1.99,1.69,4.56,2.54,7.71,2.54,5.21,0,9.28-1.82,12.21-5.47l7.52,8.89c-2.05,2.83-4.96,5.09-8.72,6.76s-7.8,2.51-12.13,2.51Zm-1.86-42.09c-4.82,0-7.68,3.19-8.59,9.57h16.6v-1.27c.07-2.64-.6-4.68-2-6.13-1.4-1.45-3.4-2.17-6.01-2.17Z"/><path class="b" d="M2026.33,64.41l-5.42-.39c-5.18,0-8.5,1.63-9.96,4.88v33.45h-16.46V49.51h15.43l.54,6.79c2.77-5.18,6.62-7.76,11.57-7.76,1.76,0,3.29,.2,4.59,.59l-.29,15.28Z"/></g><g><path class="b" d="M1485.52,7.23l10.25,27.25,10.23-27.25h7.98V42.77h-6.15v-11.72l.61-15.67-10.5,27.39h-4.42l-10.47-27.37,.61,15.65v11.72h-6.15V7.23h8.01Z"/><path class="b" d="M1536.5,42.77c-.26-.5-.49-1.33-.68-2.47-1.89,1.97-4.2,2.95-6.93,2.95s-4.82-.76-6.49-2.27c-1.68-1.51-2.51-3.39-2.51-5.62,0-2.82,1.04-4.98,3.14-6.48,2.09-1.51,5.08-2.26,8.97-2.26h3.64v-1.73c0-1.37-.38-2.46-1.15-3.28-.77-.82-1.93-1.23-3.49-1.23-1.35,0-2.46,.34-3.32,1.01-.86,.68-1.29,1.53-1.29,2.58h-5.93c0-1.45,.48-2.8,1.44-4.06,.96-1.26,2.27-2.25,3.92-2.97,1.65-.72,3.5-1.07,5.53-1.07,3.09,0,5.56,.78,7.4,2.33,1.84,1.55,2.78,3.74,2.83,6.56v11.91c0,2.38,.33,4.27,1,5.69v.42h-6.05Zm-6.52-4.27c1.17,0,2.27-.28,3.31-.85,1.03-.57,1.81-1.33,2.33-2.29v-4.98h-3.2c-2.2,0-3.85,.38-4.96,1.15-1.11,.77-1.66,1.85-1.66,3.25,0,1.14,.38,2.05,1.13,2.72,.76,.68,1.77,1.01,3.04,1.01Z"/><path class="b" d="M1562.57,35.6c0-1.06-.44-1.86-1.31-2.42-.87-.55-2.32-1.04-4.33-1.46-2.02-.42-3.7-.96-5.05-1.61-2.96-1.43-4.44-3.51-4.44-6.23,0-2.28,.96-4.18,2.88-5.71,1.92-1.53,4.36-2.29,7.32-2.29,3.16,0,5.71,.78,7.65,2.34s2.92,3.59,2.92,6.08h-5.93c0-1.14-.42-2.09-1.27-2.84-.85-.76-1.97-1.14-3.37-1.14-1.3,0-2.36,.3-3.19,.9-.82,.6-1.23,1.41-1.23,2.42,0,.91,.38,1.62,1.15,2.12,.76,.5,2.31,1.01,4.64,1.53,2.33,.51,4.15,1.12,5.48,1.83s2.31,1.56,2.95,2.55c.64,.99,.96,2.2,.96,3.61,0,2.38-.99,4.3-2.95,5.77-1.97,1.47-4.55,2.21-7.74,2.21-2.17,0-4.09-.39-5.79-1.17-1.69-.78-3.01-1.86-3.96-3.22-.94-1.37-1.42-2.84-1.42-4.42h5.76c.08,1.4,.61,2.48,1.59,3.23s2.27,1.14,3.88,1.14,2.75-.3,3.56-.89c.81-.59,1.22-1.37,1.22-2.33Z"/><path class="b" d="M1588.38,35.6c0-1.06-.44-1.86-1.31-2.42-.87-.55-2.32-1.04-4.33-1.46-2.02-.42-3.7-.96-5.05-1.61-2.96-1.43-4.44-3.51-4.44-6.23,0-2.28,.96-4.18,2.88-5.71,1.92-1.53,4.36-2.29,7.32-2.29,3.16,0,5.71,.78,7.65,2.34s2.92,3.59,2.92,6.08h-5.93c0-1.14-.42-2.09-1.27-2.84-.85-.76-1.97-1.14-3.37-1.14-1.3,0-2.36,.3-3.19,.9-.82,.6-1.23,1.41-1.23,2.42,0,.91,.38,1.62,1.15,2.12,.76,.5,2.31,1.01,4.64,1.53,2.33,.51,4.15,1.12,5.48,1.83s2.31,1.56,2.95,2.55c.64,.99,.96,2.2,.96,3.61,0,2.38-.99,4.3-2.95,5.77-1.97,1.47-4.55,2.21-7.74,2.21-2.17,0-4.09-.39-5.79-1.17-1.69-.78-3.01-1.86-3.96-3.22-.94-1.37-1.42-2.84-1.42-4.42h5.76c.08,1.4,.61,2.48,1.59,3.23s2.27,1.14,3.88,1.14,2.75-.3,3.56-.89c.81-.59,1.22-1.37,1.22-2.33Z"/></g><g><path class="b" d="M1345.99,117.37h-13.77l-2.88,8.28h-6.42l13.43-35.55h5.54l13.45,35.55h-6.45l-2.91-8.28Zm-12.04-4.98h10.3l-5.15-14.75-5.15,14.75Z"/><path class="b" d="M1365.81,92.81v6.42h4.66v4.39h-4.66v14.75c0,1.01,.2,1.74,.6,2.19,.4,.45,1.11,.67,2.14,.67,.68,0,1.38-.08,2.08-.24v4.59c-1.35,.37-2.65,.56-3.91,.56-4.56,0-6.84-2.51-6.84-7.54v-14.97h-4.35v-4.39h4.35v-6.42h5.93Z"/><path class="b" d="M1373.16,112.19c0-2.59,.51-4.92,1.54-6.99s2.47-3.67,4.32-4.79c1.86-1.11,3.99-1.67,6.4-1.67,3.56,0,6.46,1.15,8.68,3.44s3.42,5.34,3.6,9.13l.02,1.39c0,2.6-.5,4.93-1.5,6.98s-2.43,3.64-4.3,4.76-4.02,1.68-6.46,1.68c-3.73,0-6.71-1.24-8.95-3.72-2.24-2.48-3.36-5.79-3.36-9.92v-.29Zm5.93,.51c0,2.72,.56,4.85,1.68,6.38s2.69,2.31,4.69,2.31,3.56-.78,4.67-2.34,1.67-3.85,1.67-6.86c0-2.67-.57-4.79-1.72-6.35s-2.71-2.34-4.67-2.34-3.48,.77-4.61,2.31c-1.14,1.54-1.71,3.84-1.71,6.9Z"/><path class="b" d="M1408.32,99.23l.17,2.76c1.86-2.16,4.39-3.25,7.62-3.25,3.53,0,5.95,1.35,7.25,4.05,1.92-2.7,4.62-4.05,8.11-4.05,2.91,0,5.08,.81,6.51,2.42s2.15,3.99,2.19,7.13v17.36h-5.93v-17.19c0-1.68-.37-2.91-1.1-3.69s-1.95-1.17-3.64-1.17c-1.35,0-2.45,.36-3.31,1.09-.85,.72-1.45,1.67-1.79,2.84l.02,18.12h-5.93v-17.38c-.08-3.11-1.67-4.66-4.76-4.66-2.38,0-4.06,.97-5.05,2.91v19.14h-5.93v-26.42h5.59Z"/><path class="b" d="M1446.25,92.37c0-.91,.29-1.67,.87-2.27,.58-.6,1.4-.9,2.48-.9s1.9,.3,2.49,.9c.59,.6,.88,1.36,.88,2.27s-.29,1.64-.88,2.23c-.59,.59-1.42,.89-2.49,.89s-1.9-.3-2.48-.89c-.58-.59-.87-1.34-.87-2.23Zm6.3,33.28h-5.93v-26.42h5.93v26.42Z"/><path class="b" d="M1469.86,121.39c1.48,0,2.71-.43,3.69-1.29,.98-.86,1.5-1.93,1.56-3.2h5.59c-.07,1.64-.58,3.18-1.54,4.6-.96,1.42-2.26,2.55-3.91,3.38-1.64,.83-3.42,1.25-5.32,1.25-3.7,0-6.62-1.2-8.79-3.59-2.17-2.39-3.25-5.7-3.25-9.91v-.61c0-4.02,1.07-7.24,3.22-9.66s5.08-3.63,8.79-3.63c3.14,0,5.7,.92,7.68,2.75s3.02,4.24,3.11,7.21h-5.59c-.07-1.51-.58-2.76-1.55-3.74s-2.2-1.46-3.7-1.46c-1.92,0-3.4,.7-4.44,2.09-1.04,1.39-1.57,3.5-1.59,6.34v.95c0,2.86,.52,5,1.55,6.41,1.03,1.41,2.53,2.11,4.48,2.11Z"/><path class="b" d="M1512.15,115.63h-5.47l-1.86,10.01h-4.1l1.86-10.01h-5.64v-3.86h6.37l1.42-7.67h-5.93v-3.86h6.67l1.9-10.16h4.08l-1.9,10.16h5.49l1.9-10.16h4.08l-1.9,10.16h5.08v3.86h-5.81l-1.42,7.67h5.4v3.86h-6.13l-1.86,10.01h-4.08l1.86-10.01Zm-4.74-3.86h5.47l1.42-7.67h-5.47l-1.42,7.67Z"/><path class="b" d="M1552.11,112.92h-12.82v-4.79h12.82v4.79Z"/><path class="b" d="M1585.15,125.64h-5.91v-28.56l-8.72,2.97v-4.98l13.87-5.1h.76v35.67Z"/></g></g><g><g><path class="d" d="M879.5,72.17h-26.95v16.99h31.84v13.18h-48.97V31.25h49.07v13.23h-31.93v14.99h26.95v12.7Z"/><path class="d" d="M907.97,102.35h-16.5V27.35h16.5V102.35Z"/><path class="d" d="M943.66,103.32c-8.11,0-14.67-2.42-19.68-7.25-5.01-4.83-7.52-11.12-7.52-18.87v-1.37c0-5.4,1-10.17,3-14.31,2-4.13,4.92-7.33,8.76-9.59,3.84-2.26,8.4-3.39,13.67-3.39,7.42,0,13.28,2.3,17.58,6.91,4.3,4.61,6.45,11.03,6.45,19.26v6.4h-32.71c.59,2.96,1.87,5.29,3.86,6.98,1.99,1.69,4.56,2.54,7.71,2.54,5.21,0,9.28-1.82,12.21-5.47l7.52,8.89c-2.05,2.83-4.96,5.09-8.72,6.76s-7.8,2.51-12.13,2.51Zm-1.86-42.09c-4.82,0-7.68,3.19-8.59,9.57h16.6v-1.27c.06-2.64-.6-4.68-2-6.13-1.4-1.45-3.4-2.17-6.01-2.17Z"/><path class="d" d="M994.88,90.63c2.31,0,4.1-.63,5.37-1.88,1.27-1.25,1.89-3,1.86-5.25h15.43c0,5.79-2.08,10.55-6.23,14.26s-9.5,5.57-16.04,5.57c-7.68,0-13.74-2.41-18.16-7.23-4.43-4.82-6.64-11.49-6.64-20.02v-.68c0-5.34,.98-10.05,2.95-14.14,1.97-4.08,4.81-7.23,8.52-9.42s8.11-3.3,13.18-3.3c6.87,0,12.32,1.9,16.36,5.71,4.04,3.81,6.05,8.97,6.05,15.48h-15.43c0-2.73-.67-4.83-2-6.3-1.33-1.46-3.12-2.2-5.37-2.2-4.26,0-6.75,2.72-7.47,8.15-.23,1.73-.34,4.1-.34,7.13,0,5.31,.63,8.98,1.9,11.04s3.29,3.08,6.05,3.08Z"/><path class="d" d="M1043.66,36.38v13.13h8.69v11.43h-8.69v24.17c0,1.99,.36,3.37,1.07,4.15,.72,.78,2.13,1.17,4.25,1.17,1.63,0,2.99-.1,4.1-.29v11.77c-2.96,.94-6.05,1.42-9.28,1.42-5.66,0-9.85-1.33-12.55-4-2.7-2.67-4.05-6.72-4.05-12.16v-26.22h-6.74v-11.43h6.74v-13.13h16.46Z"/><path class="d" d="M1090.78,64.41l-5.42-.39c-5.18,0-8.5,1.63-9.96,4.88v33.45h-16.46V49.51h15.43l.54,6.79c2.77-5.18,6.62-7.76,11.57-7.76,1.76,0,3.29,.2,4.59,.59l-.29,15.28Z"/><path class="d" d="M1092.88,75.44c0-5.27,1.03-9.97,3.08-14.09,2.05-4.12,5-7.28,8.84-9.5,3.84-2.21,8.35-3.32,13.53-3.32,7.91,0,14.14,2.45,18.7,7.35,4.56,4.9,6.84,11.56,6.84,20v.59c0,8.24-2.29,14.77-6.86,19.6s-10.77,7.25-18.58,7.25-13.56-2.25-18.12-6.76c-4.56-4.51-7.02-10.62-7.37-18.33l-.05-2.78Zm16.46,1.03c0,4.88,.76,8.46,2.29,10.74,1.53,2.28,3.79,3.42,6.79,3.42,5.86,0,8.85-4.51,8.98-13.53v-1.66c0-9.47-3.03-14.21-9.08-14.21-5.5,0-8.48,4.09-8.94,12.26l-.05,2.98Z"/><path class="d" d="M1166.22,49.51l.54,6.2c3.65-4.79,8.67-7.18,15.09-7.18,5.5,0,9.61,1.64,12.33,4.93,2.72,3.29,4.13,8.24,4.22,14.84v34.03h-16.5v-33.35c0-2.67-.54-4.63-1.61-5.88-1.07-1.25-3.03-1.88-5.86-1.88-3.22,0-5.62,1.27-7.18,3.81v37.3h-16.46V49.51h15.43Z"/></g><path class="d" d="M810.88,27.81c0,5.11-.96,8.96-2.87,11.56-1.91,2.6-4.82,3.89-8.73,3.89s-6.73-1.27-8.68-3.8c-1.95-2.53-2.94-6.28-2.99-11.24v-6.15c0-5.11,.96-8.94,2.87-11.5,1.91-2.56,4.83-3.83,8.75-3.83s6.79,1.25,8.7,3.74,2.89,6.22,2.94,11.18v6.15Zm-5.93-6.64c0-3.34-.46-5.78-1.37-7.34-.91-1.55-2.36-2.33-4.35-2.33s-3.36,.74-4.27,2.21c-.91,1.47-1.39,3.77-1.44,6.9v8.06c0,3.32,.46,5.79,1.39,7.42,.93,1.63,2.38,2.44,4.37,2.44s3.31-.75,4.22-2.26c.91-1.51,1.39-3.86,1.44-7.07v-8.03Z"/><g><path class="d" d="M781.7,112.92h-12.82v-4.79h12.82v4.79Z"/><path class="d" d="M802.28,125.64h-5.91v-28.56l-8.72,2.97v-4.98l13.87-5.1h.76v35.67Z"/></g></g><g><path class="e" d="M1241.71,79.76h-14.67v-6.35h14.67v6.35Z"/><path class="e" d="M1261.8,76.98l-13.28-4.52v-7.47l21.46,8.79v6.49l-21.46,8.79v-7.47l13.28-4.61Z"/></g><path class="e" d="M717.7,71.76h8.33v7.06h-8.33v9.55h-7.69v-9.55h-8.35v-7.06h8.35v-9.28h7.69v9.28Z"/></svg>