<?xml version="1.0" encoding="UTF-8"?>
<svg id="a" xmlns="http://www.w3.org/2000/svg" xmlns:xlink="http://www.w3.org/1999/xlink" viewBox="0 0 1621.12 1048.83">
  <defs>
    <style>
      .cls-1 {
        stroke-width: 66px;
      }

      .cls-1, .cls-2 {
        stroke: #7c7c7c;
      }

      .cls-1, .cls-2, .cls-3, .cls-4 {
        stroke-miterlimit: 10;
      }

      .cls-1, .cls-2, .cls-5 {
        fill: none;
      }

      .cls-2 {
        stroke-linecap: round;
        stroke-width: 20px;
      }

      .cls-3 {
        fill: #67ce7b;
      }

      .cls-3, .cls-4 {
        stroke-width: 6.64px;
      }

      .cls-3, .cls-4, .cls-6 {
        stroke: #fff;
      }

      .cls-7 {
        isolation: isolate;
      }

      .cls-4 {
        fill: #7c7c7c;
      }

      .cls-5, .cls-8 {
        stroke-width: 0px;
      }

      .cls-8 {
        fill: #fff;
      }

      .cls-9 {
        clip-path: url(#clippath);
      }

      .cls-6 {
        fill: #cc6969;
        stroke-miterlimit: 10;
        stroke-width: 16px;
      }
    </style>
    <clipPath id="clippath">
      <rect class="cls-5" x="376.97" y="178.79" width="679.1" height="679.1" rx="47.5" ry="47.5"/>
    </clipPath>
  </defs>
  <rect class="cls-8" x="376.97" y="178.79" width="679.1" height="679.1" rx="47.6" ry="47.6"/>
  <g class="cls-9">
    <g>
      <path class="cls-2" d="M587.97,271.56c41.28-77.61,81.08-168.69,41.53-243.23-65.2-61.2-255.9,35.9-425.9,217C108.9,346.22,40.6,451.92,10,536.42"/>
      <g>
        <circle class="cls-3" cx="480.07" cy="361.57" r="55.1"/>
        <circle class="cls-4" cx="505.62" cy="298.49" r="55.1"/>
        <circle class="cls-3" cx="554.83" cy="354.84" r="55.1"/>
        <circle class="cls-4" cx="519.81" cy="419.19" r="55.1"/>
      </g>
      <path class="cls-2" d="M110.62,297.59c53.9,51.6,124.7,104.4,206.7,151.5,215.4,123.7,426.2,161,470.7,83.4,44.6-77.6-93.9-240.7-309.3-364.4C358.62,99.19,240.02,57.09,150.82,46.79"/>
      <g>
        <g>
          <circle class="cls-1" cx="782.52" cy="532.69" r="177.1"/>
          <line class="cls-1" x1="663.12" y1="663.49" x2="415.92" y2="1030.39"/>
        </g>
        <circle class="cls-6" cx="782.47" cy="532.67" r="97.4"/>
      </g>
      <image class="cls-7" width="303" height="309" transform="translate(1468.64 339.06) scale(.5)" xlink:href="FA50256.jpg"/>
      <image class="cls-7" width="231" height="234" transform="translate(1341.21 936.7) scale(.33)" xlink:href="FA5025A.jpg"/>
      <path class="cls-2" d="M439.9,467.12s-76.85,88.75-132.85,108.75"/>
    </g>
  </g>
</svg>