<?xml version="1.0" encoding="utf-8"?>
<!-- Generator: Adobe Illustrator 28.2.0, SVG Export Plug-In . SVG Version: 6.00 Build 0)  -->
<svg version="1.1" id="a" xmlns="http://www.w3.org/2000/svg" xmlns:xlink="http://www.w3.org/1999/xlink" x="0px" y="0px"
	 viewBox="0 0 679.1 679.1" style="enable-background:new 0 0 679.1 679.1;" xml:space="preserve">
<style type="text/css">
	.st0{fill:none;stroke:#7C7C7C;stroke-width:20;stroke-linecap:round;stroke-miterlimit:10;}
	.st1{fill:#FFFFFF;}
	.st2{fill:#67CE7B;stroke:#FFFFFF;stroke-width:6.64;stroke-miterlimit:10;}
	.st3{fill:#7C7C7C;stroke:#FFFFFF;stroke-width:6.64;stroke-miterlimit:10;}
	.st4{fill:none;stroke:#7C7C7C;stroke-width:66;stroke-miterlimit:10;}
	.st5{fill:#CC6969;stroke:#FFFFFF;stroke-width:16;stroke-miterlimit:10;}
</style>
<path class="st0" d="M-92.4,481.4c62.7-40.5,130.4-97.3,195.1-166.2c170-181.1,254.9-377.6,189.6-438.8
	c-65.2-61.2-255.9,35.9-425.9,217c-94.7,100.9-163,206.6-193.6,291.1"/>
<polygon class="st1" points="228.6,96.2 285.1,152.7 176.3,312.2 59.2,276.9 -24.1,125.5 95.7,45.4 161.7,55.3 "/>
<g>
	<circle class="st2" cx="103.9" cy="172.3" r="52.4"/>
	<circle class="st3" cx="128.2" cy="112.3" r="52.4"/>
	<circle class="st2" cx="175" cy="165.9" r="52.4"/>
	<circle class="st3" cx="141.7" cy="227.1" r="52.4"/>
</g>
<path class="st0" d="M-271.9,102.8c53.9,51.6,124.7,104.4,206.7,151.5C150.2,378,361,415.3,405.5,337.7
	C450.1,260.1,311.6,97,96.2-26.7C-23.9-95.6-142.5-137.7-231.7-148"/>
<g>
	<g>
		<circle class="st4" cx="400" cy="337.9" r="177.1"/>
		<line class="st4" x1="280.6" y1="468.7" x2="33.4" y2="835.6"/>
	</g>
	
		<ellipse transform="matrix(0.7071 -0.7071 0.7071 0.7071 -121.8186 381.7916)" class="st5" cx="400" cy="337.9" rx="97.4" ry="97.4"/>
</g>
<image style="overflow:visible;" width="303" height="310" xlink:href="FA50256.jpg"  transform="matrix(0.5024 0 0 0.5024 1091.7941 160.1446)">
</image>
<image style="overflow:visible;" width="229" height="233" xlink:href="FA5025A.jpg"  transform="matrix(0.3339 0 0 0.3339 964.3235 757.831)">
</image>
</svg>
